<svg width="28" height="27" viewBox="0 0 28 27" fill="none" xmlns="http://www.w3.org/2000/svg">
<path d="M14 3.75C7.7175 3.75 2.625 7.50375 2.625 12.1242C2.625 15.0437 4.66667 17.6112 7.7525 19.1062L6.72583 22.9304C6.71266 22.9782 6.71502 23.0285 6.73263 23.0749C6.75024 23.1214 6.78231 23.162 6.82477 23.1916C6.86723 23.2212 6.91818 23.2384 6.97117 23.2411C7.02417 23.2438 7.07683 23.2318 7.1225 23.2067L12.25 20.3792C12.8303 20.4492 13.4148 20.4854 14 20.4875C20.2825 20.4875 25.375 16.7446 25.375 12.1242C25.375 7.50375 20.2825 3.75 14 3.75Z" stroke="black" stroke-linecap="round" stroke-linejoin="round"/>
<path d="M13.9475 13.5921C14.8206 13.5921 15.5284 12.9349 15.5284 12.1242C15.5284 11.3135 14.8206 10.6562 13.9475 10.6562C13.0745 10.6562 12.3667 11.3135 12.3667 12.1242C12.3667 12.9349 13.0745 13.5921 13.9475 13.5921Z" stroke="black" stroke-linecap="round" stroke-linejoin="round"/>
<path d="M19.6292 13.5921C20.5022 13.5921 21.21 12.9349 21.21 12.1242C21.21 11.3135 20.5022 10.6562 19.6292 10.6562C18.7561 10.6562 18.0483 11.3135 18.0483 12.1242C18.0483 12.9349 18.7561 13.5921 19.6292 13.5921Z" stroke="black" stroke-linecap="round" stroke-linejoin="round"/>
<path d="M8.27163 13.5921C9.1447 13.5921 9.85246 12.9349 9.85246 12.1242C9.85246 11.3135 9.1447 10.6562 8.27163 10.6562C7.39856 10.6562 6.6908 11.3135 6.6908 12.1242C6.6908 12.9349 7.39856 13.5921 8.27163 13.5921Z" stroke="black" stroke-linecap="round" stroke-linejoin="round"/>
</svg>
