<?xml version="1.0" encoding="UTF-8" standalone="no"?>
<!-- Created with Inkscape (http://www.inkscape.org/) -->

<svg
   width="30.472044mm"
   height="30.424564mm"
   viewBox="0 0 30.472044 30.424564"
   version="1.1"
   id="svg5"
   xml:space="preserve"
   inkscape:version="1.2 (dc2aedaf03, 2022-05-15)"
   xmlns:inkscape="http://www.inkscape.org/namespaces/inkscape"
   xmlns:sodipodi="http://sodipodi.sourceforge.net/DTD/sodipodi-0.dtd"
   xmlns="http://www.w3.org/2000/svg"
   xmlns:svg="http://www.w3.org/2000/svg"><sodipodi:namedview
     id="namedview7"
     pagecolor="#ffffff"
     bordercolor="#000000"
     borderopacity="0.25"
     inkscape:showpageshadow="2"
     inkscape:pageopacity="0.0"
     inkscape:pagecheckerboard="0"
     inkscape:deskcolor="#d1d1d1"
     inkscape:document-units="mm"
     showgrid="false"
     inkscape:zoom="0.74564394"
     inkscape:cx="541.81356"
     inkscape:cy="307.11709"
     inkscape:window-width="1920"
     inkscape:window-height="1017"
     inkscape:window-x="1592"
     inkscape:window-y="-8"
     inkscape:window-maximized="1"
     inkscape:current-layer="layer1" /><defs
     id="defs2" /><g
     inkscape:label="Capa 1"
     inkscape:groupmode="layer"
     id="layer1"
     transform="translate(-4.734618,-4.9448298)"><path
       style="fill:none;stroke:#000000;stroke-width:0.264583;stroke-opacity:1"
       d="M 13.736047,5.098156 C 15.89075,4.650519 34.784565,12.256504 35.063298,13.629058 35.4023,15.298393 26.919475,34.581233 25.59149,35.207218 24.377438,35.779497 5.2858703,26.618727 5.0169643,25.421773 4.2867843,23.83747 6.3467163,18.425062 9.2024683,12.919946 12.058221,7.41483 12.931459,5.409095 13.736047,5.098156 Z"
       id="path75"
       sodipodi:nodetypes="cssczc" /><path
       style="fill:none;stroke:#000000;stroke-width:0.264583;stroke-opacity:1"
       d="M 27.016074,13.981226 20.335625,20.379401 5.9318893,20.54014 c -0.470729,1.552781 -0.863544,3.123542 -0.953059,4.764296 0.06524,-1.980522 0.528321,-3.483623 1.219758,-4.712702 l -0.266699,-0.05159"
       id="path1009"
       sodipodi:nodetypes="cccccc" /><path
       style="fill:none;stroke:#000000;stroke-width:0.264583;stroke-opacity:1"
       d="M 20.416495,20.372232 25.183763,35.0504"
       id="path1013"
       sodipodi:nodetypes="cc" /><path
       style="fill:none;stroke:#000000;stroke-width:0.264583;stroke-opacity:1"
       d="m 15.241501,10.680878 c 0.854204,-0.317563 2.119482,0.03612 2.697268,1.191818 0.577786,1.155702 0.276836,2.892415 -0.689999,3.010905 -0.966835,0.11849 -2.273025,-0.429706 -2.759997,-1.56818 -0.486972,-1.138474 -0.101476,-2.31698 0.752728,-2.634543 z"
       id="path1015"
       sodipodi:nodetypes="zzzzz" /><path
       style="fill:none;stroke:#000000;stroke-width:0.264583;stroke-opacity:1"
       d="m 14.927864,25.359046 c 0,0 -1.560993,1.708857 -0.940909,2.289543 0.620084,0.580686 2.948181,-0.407726 2.948181,-0.156817 0,0 -0.566123,1.102068 0,1.630906 0.566123,0.528838 2.320904,-0.18818 2.320904,-0.18818"
       id="path1017"
       sodipodi:nodetypes="czszc" /><path
       style="fill:none;stroke:#000000;stroke-width:0.264583;stroke-opacity:1"
       d="m 28.351488,25.170866 -2.885453,0.815454 2.446361,-5.45727"
       id="path1019" /><path
       style="fill:#000000;fill-opacity:1;stroke:#000000;stroke-width:0.264583;stroke-opacity:1"
       d="m 13.798774,5.098156 13.290328,8.875901 7.809537,-0.407725 C 34.747485,13.124638 29.798949,10.7014 25.93877,9.074311 21.182239,7.089765 17.397234,6.00735 13.798774,5.098156 Z"
       id="path1021"
       sodipodi:nodetypes="ccccc" /><path
       style="fill:#000000;fill-opacity:1;stroke:#000000;stroke-width:0.264583;stroke-opacity:1"
       d="m 18.738542,20.395756 c 0.491303,-1.1e-5 2.208908,-0.472877 2.344429,-0.666478 0,0 -0.611589,0.588069 -0.642953,0.619432 -0.03136,0.03136 -1.317271,0.04704 -1.317271,0.04704 z"
       id="path1023"
       sodipodi:nodetypes="scscs" /></g></svg>
