<svg width="122" height="115" viewBox="0 0 122 115" fill="none" xmlns="http://www.w3.org/2000/svg">
<path d="M1.99996 51.5001C2.49991 49.5001 17.4999 15.0001 20 12.5001M1.99996 51.5001C1.50002 53.5001 0.99991 68.5001 1.99996 71.5001C3.00001 74.5001 21.6634 105.254 24.5 106.5C27.3365 107.746 42 114.5 43 114.5M1.99996 51.5001C1.99996 51.5001 29 79 30.5 79M20 12.5001C22.5 10.0001 35 3.00004 37.5 2.5C40 1.99996 72.0076 1.16638 75.5 1.49998C78.9924 1.83358 92.9886 8.21094 95.5 9.39586M20 12.5001C35 17.5 58.5 20.5 59.5 22M95.5 9.39586C98.0114 10.5808 119 40.5 120 43M95.5 9.39586L59.5 22M120 43C121 45.5 120.5 65 120 68.0001C119.5 71.0002 105.5 98.5002 104 100.5C102.5 102.5 87 112.5 85 113M120 43L94.5 75.5M85 113C83 113.5 44 114.5 43 114.5M85 113C85 113 95.5 78 94.5 75.5M43 114.5L30.5 79M59.5 22C60.5 23.5 62 57 61.5 58M61.5 58C61 59 32 79 30.5 79M61.5 58C73.9893 64.2377 93.5 73 94.5 75.5M28 29.5C23.5572 36.6629 22.5854 40.9751 20 48.5M39.5 39.5C39.5 39.5 40.5 33 35.5 31C30.5 29 28 51.5001 28 51.5001M81.5 42C81.5 42 79.5 32.5 81.5 32.5C83.5 32.5 93 52.5 93 52.5M89.5 32.5C89.7975 30.5529 89.9382 29.4268 89.5 26.5M49.5 5.5C48.3397 9.70601 48.8625 11.3647 49.5 14.5M56 8C56 8 61.9437 2.29079 65 4.5C68.6121 7.11097 59.5 14.5 59.5 14.5M59.5 82C59.5 82 66 77 70 82C74 87 65 93 65 93M60 94C60 94 56.8758 101.657 60 104C62.3431 105.757 67.5 104 67.5 104M101 79C101 79 101.5 73 106 70C110.5 67 111 73.5 109.5 79C108 84.5 102 92 102 92M12 80.5C12 80.5 22.5 81 23 82C23.5 83 24.5 96.5 24.5 96.5" stroke="black"/>
</svg>
