<svg width="22" height="22" viewBox="0 0 22 22" fill="none" xmlns="http://www.w3.org/2000/svg">
<path d="M2.83333 0.5H19.1667C19.7855 0.5 20.379 0.745833 20.8166 1.18342C21.2542 1.621 21.5 2.21449 21.5 2.83333V19.1667C21.5 19.7855 21.2542 20.379 20.8166 20.8166C20.379 21.2542 19.7855 21.5 19.1667 21.5H2.83333C2.21449 21.5 1.621 21.2542 1.18342 20.8166C0.745833 20.379 0.5 19.7855 0.5 19.1667V2.83333C0.5 2.21449 0.745833 1.621 1.18342 1.18342C1.621 0.745833 2.21449 0.5 2.83333 0.5ZM5.16667 2.83333C4.54783 2.83333 3.95434 3.07917 3.51675 3.51675C3.07917 3.95434 2.83333 4.54783 2.83333 5.16667C2.83333 5.7855 3.07917 6.379 3.51675 6.81658C3.95434 7.25417 4.54783 7.5 5.16667 7.5C5.7855 7.5 6.379 7.25417 6.81658 6.81658C7.25417 6.379 7.5 5.7855 7.5 5.16667C7.5 4.54783 7.25417 3.95434 6.81658 3.51675C6.379 3.07917 5.7855 2.83333 5.16667 2.83333ZM16.8333 14.5C16.2145 14.5 15.621 14.7458 15.1834 15.1834C14.7458 15.621 14.5 16.2145 14.5 16.8333C14.5 17.4522 14.7458 18.0457 15.1834 18.4832C15.621 18.9208 16.2145 19.1667 16.8333 19.1667C17.4522 19.1667 18.0457 18.9208 18.4832 18.4832C18.9208 18.0457 19.1667 17.4522 19.1667 16.8333C19.1667 16.2145 18.9208 15.621 18.4832 15.1834C18.0457 14.7458 17.4522 14.5 16.8333 14.5ZM16.8333 2.83333C16.2145 2.83333 15.621 3.07917 15.1834 3.51675C14.7458 3.95434 14.5 4.54783 14.5 5.16667C14.5 5.7855 14.7458 6.379 15.1834 6.81658C15.621 7.25417 16.2145 7.5 16.8333 7.5C17.4522 7.5 18.0457 7.25417 18.4832 6.81658C18.9208 6.379 19.1667 5.7855 19.1667 5.16667C19.1667 4.54783 18.9208 3.95434 18.4832 3.51675C18.0457 3.07917 17.4522 2.83333 16.8333 2.83333ZM11 8.66667C10.3812 8.66667 9.78767 8.9125 9.35008 9.35008C8.9125 9.78767 8.66667 10.3812 8.66667 11C8.66667 11.6188 8.9125 12.2123 9.35008 12.6499C9.78767 13.0875 10.3812 13.3333 11 13.3333C11.6188 13.3333 12.2123 13.0875 12.6499 12.6499C13.0875 12.2123 13.3333 11.6188 13.3333 11C13.3333 10.3812 13.0875 9.78767 12.6499 9.35008C12.2123 8.9125 11.6188 8.66667 11 8.66667ZM5.16667 14.5C4.54783 14.5 3.95434 14.7458 3.51675 15.1834C3.07917 15.621 2.83333 16.2145 2.83333 16.8333C2.83333 17.4522 3.07917 18.0457 3.51675 18.4832C3.95434 18.9208 4.54783 19.1667 5.16667 19.1667C5.7855 19.1667 6.379 18.9208 6.81658 18.4832C7.25417 18.0457 7.5 17.4522 7.5 16.8333C7.5 16.2145 7.25417 15.621 6.81658 15.1834C6.379 14.7458 5.7855 14.5 5.16667 14.5Z" fill="white"/>
</svg>
